<svg xmlns="http://www.w3.org/2000/svg" viewBox="0 0 200 188.72"><defs><style>.cls-1,.cls-3{fill:#1791e5;}.cls-2{fill:none;stroke:#1791e5;stroke-miterlimit:10;stroke-width:10px;}.cls-3{opacity:0.15;}</style></defs><title>Corporate mission_1</title><g id="图层_2" data-name="图层 2"><g id="图层_1-2" data-name="图层 1"><path class="cls-1" d="M153.63,119a5,5,0,0,1-5-5V76.47a5,5,0,0,1,10,0V114A5,5,0,0,1,153.63,119Zm0,35a5,5,0,0,1-5-5V134a5,5,0,0,1,10,0v15A5,5,0,0,1,153.63,154Z"/><path class="cls-2" d="M129,44h27.46a20.06,20.06,0,0,1,20,20V179.72"/><path class="cls-2" d="M108,179.72"/><path class="cls-2" d="M16.72,180V25a20.06,20.06,0,0,1,20-20h76.61a20.06,20.06,0,0,1,20,20V180"/><path class="cls-1" d="M195,188.72H5a5,5,0,0,1,0-10H195a5,5,0,0,1,0,10ZM61.5,42.72H39a5,5,0,0,1,0-10H61.5a5,5,0,0,1,0,10Zm47.5,0H86.5a5,5,0,0,1,0-10H109a5,5,0,0,1,0,10Zm-47.5,35H39a5,5,0,0,1,0-10H61.5a5,5,0,0,1,0,10Zm47.5,0H86.5a5,5,0,0,1,0-10H109a5,5,0,0,1,0,10Zm-47.5,35H39a5,5,0,0,1,0-10H61.5a5,5,0,0,1,0,10Zm0,35H39a5,5,0,0,1,0-10H61.5a5,5,0,0,1,0,10Zm47.5-35H86.5a5,5,0,0,1,0-10H109a5,5,0,0,1,0,10Z"/><path class="cls-3" d="M128.9,179.59V63.85a20.06,20.06,0,0,1,20-20h7.46a20.06,20.06,0,0,1,20,20V179.59"/></g></g></svg>