<svg xmlns="http://www.w3.org/2000/svg" viewBox="0 0 208.66 208.66"><defs><style>.cls-1{fill:none;stroke:#1791e5;stroke-miterlimit:10;stroke-width:10px;}.cls-2,.cls-3{fill:#1791e5;}.cls-2{opacity:0.25;}</style></defs><title>Business Vision</title><g id="图层_2" data-name="图层 2"><g id="图层_1-2" data-name="图层 1"><path class="cls-1" d="M5,104.33A99.33,99.33,0,1,0,104.33,5,99.33,99.33,0,0,0,5,104.33Z"/><path class="cls-2" d="M105,97c26.86,0,48.47-9.09,48.47-20.2a8.85,8.85,0,0,0-2-5.65c-.61-.81-1.22-1.42-1.82-2.23a5.6,5.6,0,0,0-1.21-1,11.56,11.56,0,0,0-1.62-1.21c-.4-.2-.8-.61-1.21-.81-.81-.6-1.82-1-2.62-1.61-1.83-1-4-1.82-6.26-2.83a61.71,61.71,0,0,0-7.28-2.22c-1.61-.4-3.43-.8-5.25-1.21A104.4,104.4,0,0,0,109.8,56.4a39.42,39.42,0,0,1-4.85.2,42.26,42.26,0,0,0-5,.21,103,103,0,0,0-14.34,1.62c-1.82.4-3.64.6-5.25,1-2.42.61-4.85,1.22-7.07,2s-4,1.62-5.86,2.43c-.61.4-1.41.81-2,1.21a25.49,25.49,0,0,0-5.06,3.83,16.17,16.17,0,0,0-2.42,3,8.85,8.85,0,0,0-1.41,4.84C56.48,87.91,78.09,97,105,97Z"/><path class="cls-3" d="M105,105.08c-19,0-38-4.45-48.47-12.93v12.93c0,11.11,21.61,20.19,48.47,20.19s48.47-9.09,48.47-20.19V92.15C142.92,100.63,123.93,105.08,105,105.08Zm-34.34,8.07a4,4,0,1,1,4-4A4,4,0,0,1,70.61,113.15Z"/><path class="cls-3" d="M105,133.35c-19,0-38-4.44-48.47-12.93v15h.2c2.43,10.3,23,18.18,48.27,18.18s45.84-7.88,48.26-18.18h.21V120.43c-10.5,8.48-29.49,12.92-48.47,12.92Zm-34.34,8.08a4,4,0,1,1,4-4A4.05,4.05,0,0,1,70.61,141.43Z"/></g></g></svg>